<svg width="25" height="25" viewBox="0 0 25 25" fill="none" xmlns="http://www.w3.org/2000/svg">
<rect x="2.14355" y="1.76562" width="20.7656" height="20.7656" rx="10.3828" fill="#1275B1"/>
<path d="M10.0186 7.47027C10.0186 8.16336 9.41783 8.72522 8.67677 8.72522C7.93571 8.72522 7.33496 8.16336 7.33496 7.47027C7.33496 6.77719 7.93571 6.21533 8.67677 6.21533C9.41783 6.21533 10.0186 6.77719 10.0186 7.47027Z" fill="white"/>
<path d="M7.51846 9.64765H9.81215V16.5981H7.51846V9.64765Z" fill="white"/>
<path d="M13.505 9.64765H11.2113V16.5981H13.505C13.505 16.5981 13.505 14.41 13.505 13.0419C13.505 12.2207 13.7854 11.396 14.9041 11.396C16.1685 11.396 16.1609 12.4706 16.155 13.3031C16.1473 14.3914 16.1657 15.5019 16.1657 16.5981H18.4594V12.9298C18.4399 10.5875 17.8296 9.50822 15.8216 9.50822C14.6292 9.50822 13.89 10.0496 13.505 10.5394V9.64765Z" fill="white"/>
</svg>
