<svg width="252" height="63" viewBox="0 0 252 63" fill="none" xmlns="http://www.w3.org/2000/svg">
<rect y="0.690186" width="251.394" height="61.9296" rx="9.46479" fill="white"/>
<path d="M17.9062 15.8298V26.155H16.0358V15.8298H17.9062ZM26.7505 26.3063C25.9774 26.3063 25.3136 26.1365 24.759 25.7971C24.2078 25.4576 23.7826 24.9887 23.4835 24.3905C23.1877 23.7888 23.0398 23.0965 23.0398 22.3133C23.0398 21.5268 23.1911 20.8328 23.4936 20.2311C23.7961 19.6261 24.2229 19.1556 24.7742 18.8195C25.3287 18.48 25.9841 18.3103 26.7404 18.3103C27.3689 18.3103 27.9252 18.4262 28.4092 18.6582C28.8965 18.8867 29.2847 19.211 29.5738 19.6312C29.8628 20.048 30.0275 20.5353 30.0679 21.0932H28.3235C28.2529 20.7202 28.0848 20.4093 27.8193 20.1606C27.5571 19.9085 27.2059 19.7824 26.7656 19.7824C26.3925 19.7824 26.0648 19.8833 25.7825 20.0849C25.5002 20.2832 25.28 20.5689 25.122 20.942C24.9674 21.3151 24.8901 21.7621 24.8901 22.2831C24.8901 22.8108 24.9674 23.2645 25.122 23.6443C25.2766 24.0207 25.4934 24.3115 25.7724 24.5165C26.0547 24.7182 26.3858 24.819 26.7656 24.819C27.0345 24.819 27.2748 24.7686 27.4866 24.6678C27.7017 24.5636 27.8815 24.414 28.026 24.219C28.1705 24.0241 28.2697 23.7872 28.3235 23.5082H30.0679C30.0242 24.056 29.8628 24.5417 29.5839 24.9652C29.3049 25.3853 28.9251 25.7147 28.4445 25.9534C27.9638 26.1886 27.3992 26.3063 26.7505 26.3063ZM34.9444 26.3063C34.1881 26.3063 33.5327 26.1399 32.9781 25.8072C32.4235 25.4744 31.9933 25.0089 31.6875 24.4106C31.385 23.8124 31.2337 23.1133 31.2337 22.3133C31.2337 21.5134 31.385 20.8126 31.6875 20.211C31.9933 19.6093 32.4235 19.1421 32.9781 18.8094C33.5327 18.4767 34.1881 18.3103 34.9444 18.3103C35.7006 18.3103 36.356 18.4767 36.9106 18.8094C37.4652 19.1421 37.8937 19.6093 38.1962 20.211C38.5021 20.8126 38.655 21.5134 38.655 22.3133C38.655 23.1133 38.5021 23.8124 38.1962 24.4106C37.8937 25.0089 37.4652 25.4744 36.9106 25.8072C36.356 26.1399 35.7006 26.3063 34.9444 26.3063ZM34.9544 24.8442C35.3645 24.8442 35.7073 24.7316 35.9829 24.5064C36.2585 24.2779 36.4636 23.972 36.598 23.5888C36.7358 23.2057 36.8047 22.7788 36.8047 22.3083C36.8047 21.8344 36.7358 21.4058 36.598 21.0227C36.4636 20.6361 36.2585 20.3286 35.9829 20.1001C35.7073 19.8715 35.3645 19.7572 34.9544 19.7572C34.5343 19.7572 34.1848 19.8715 33.9058 20.1001C33.6302 20.3286 33.4235 20.6361 33.2857 21.0227C33.1512 21.4058 33.084 21.8344 33.084 22.3083C33.084 22.7788 33.1512 23.2057 33.2857 23.5888C33.4235 23.972 33.6302 24.2779 33.9058 24.5064C34.1848 24.7316 34.5343 24.8442 34.9544 24.8442ZM42.0291 15.8298V26.155H40.204V15.8298H42.0291ZM47.2837 26.3063C46.5275 26.3063 45.8721 26.1399 45.3175 25.8072C44.7629 25.4744 44.3327 25.0089 44.0268 24.4106C43.7243 23.8124 43.5731 23.1133 43.5731 22.3133C43.5731 21.5134 43.7243 20.8126 44.0268 20.211C44.3327 19.6093 44.7629 19.1421 45.3175 18.8094C45.8721 18.4767 46.5275 18.3103 47.2837 18.3103C48.0399 18.3103 48.6954 18.4767 49.2499 18.8094C49.8045 19.1421 50.233 19.6093 50.5355 20.211C50.8414 20.8126 50.9943 21.5134 50.9943 22.3133C50.9943 23.1133 50.8414 23.8124 50.5355 24.4106C50.233 25.0089 49.8045 25.4744 49.2499 25.8072C48.6954 26.1399 48.0399 26.3063 47.2837 26.3063ZM47.2938 24.8442C47.7038 24.8442 48.0467 24.7316 48.3223 24.5064C48.5979 24.2779 48.8029 23.972 48.9374 23.5888C49.0752 23.2057 49.1441 22.7788 49.1441 22.3083C49.1441 21.8344 49.0752 21.4058 48.9374 21.0227C48.8029 20.6361 48.5979 20.3286 48.3223 20.1001C48.0467 19.8715 47.7038 19.7572 47.2938 19.7572C46.8737 19.7572 46.5241 19.8715 46.2451 20.1001C45.9695 20.3286 45.7628 20.6361 45.625 21.0227C45.4906 21.4058 45.4233 21.8344 45.4233 22.3083C45.4233 22.7788 45.4906 23.2057 45.625 23.5888C45.7628 23.972 45.9695 24.2779 46.2451 24.5064C46.5241 24.7316 46.8737 24.8442 47.2938 24.8442ZM52.5434 26.155V18.4111H54.313V19.7018H54.3936C54.5348 19.2547 54.7768 18.9102 55.1196 18.6682C55.4658 18.4229 55.8608 18.3002 56.3044 18.3002C56.4052 18.3002 56.5178 18.3052 56.6422 18.3153C56.7699 18.322 56.8758 18.3338 56.9598 18.3506V20.0295C56.8825 20.0026 56.7598 19.9791 56.5918 19.9589C56.4271 19.9354 56.2674 19.9236 56.1128 19.9236C55.7801 19.9236 55.4809 19.9959 55.2154 20.1404C54.9533 20.2815 54.7466 20.4782 54.5953 20.7303C54.4441 20.9823 54.3684 21.2731 54.3684 21.6025V26.155H52.5434ZM58.1723 26.155V18.4111H59.9974V26.155H58.1723ZM59.0899 17.312C58.8008 17.312 58.5521 17.2162 58.3437 17.0247C58.1354 16.8297 58.0312 16.5961 58.0312 16.3239C58.0312 16.0483 58.1354 15.8147 58.3437 15.6231C58.5521 15.4282 58.8008 15.3307 59.0899 15.3307C59.3823 15.3307 59.631 15.4282 59.8361 15.6231C60.0444 15.8147 60.1486 16.0483 60.1486 16.3239C60.1486 16.5961 60.0444 16.8297 59.8361 17.0247C59.631 17.2162 59.3823 17.312 59.0899 17.312ZM71.5162 20.458L69.8525 20.6395C69.8054 20.4715 69.7231 20.3135 69.6054 20.1656C69.4912 20.0177 69.3366 19.8984 69.1416 19.8076C68.9467 19.7169 68.708 19.6715 68.4257 19.6715C68.0459 19.6715 67.7266 19.7539 67.4678 19.9186C67.2124 20.0832 67.0863 20.2967 67.0897 20.5588C67.0863 20.784 67.1687 20.9672 67.3367 21.1084C67.5081 21.2495 67.7905 21.3655 68.1837 21.4562L69.5046 21.7386C70.2373 21.8965 70.7818 22.1469 71.1381 22.4898C71.4977 22.8326 71.6792 23.2813 71.6826 23.8359C71.6792 24.3232 71.5364 24.7535 71.2541 25.1265C70.9751 25.4963 70.5869 25.7853 70.0894 25.9937C69.592 26.2021 69.0206 26.3063 68.3753 26.3063C67.4275 26.3063 66.6645 26.108 66.0864 25.7114C65.5083 25.3114 65.1638 24.7551 65.0529 24.0426L66.8326 23.8712C66.9132 24.2207 67.0846 24.4846 67.3468 24.6627C67.609 24.8408 67.9501 24.9299 68.3703 24.9299C68.8038 24.9299 69.1517 24.8408 69.4139 24.6627C69.6794 24.4846 69.8122 24.2644 69.8122 24.0023C69.8122 23.7804 69.7264 23.5973 69.555 23.4527C69.387 23.3082 69.1248 23.1973 68.7685 23.12L67.4476 22.8427C66.7048 22.6881 66.1553 22.4276 65.799 22.0612C65.4428 21.6915 65.2663 21.2243 65.2697 20.6597C65.2663 20.1824 65.3957 19.769 65.6579 19.4194C65.9234 19.0665 66.2914 18.7943 66.762 18.6027C67.2359 18.4078 67.7821 18.3103 68.4005 18.3103C69.308 18.3103 70.0222 18.5035 70.5432 18.8901C71.0675 19.2766 71.3919 19.7992 71.5162 20.458ZM76.5654 26.3063C75.8092 26.3063 75.1537 26.1399 74.5992 25.8072C74.0446 25.4744 73.6144 25.0089 73.3085 24.4106C73.006 23.8124 72.8548 23.1133 72.8548 22.3133C72.8548 21.5134 73.006 20.8126 73.3085 20.211C73.6144 19.6093 74.0446 19.1421 74.5992 18.8094C75.1537 18.4767 75.8092 18.3103 76.5654 18.3103C77.3216 18.3103 77.977 18.4767 78.5316 18.8094C79.0862 19.1421 79.5147 19.6093 79.8172 20.211C80.1231 20.8126 80.276 21.5134 80.276 22.3133C80.276 23.1133 80.1231 23.8124 79.8172 24.4106C79.5147 25.0089 79.0862 25.4744 78.5316 25.8072C77.977 26.1399 77.3216 26.3063 76.5654 26.3063ZM76.5755 24.8442C76.9855 24.8442 77.3284 24.7316 77.604 24.5064C77.8796 24.2779 78.0846 23.972 78.219 23.5888C78.3568 23.2057 78.4257 22.7788 78.4257 22.3083C78.4257 21.8344 78.3568 21.4058 78.219 21.0227C78.0846 20.6361 77.8796 20.3286 77.604 20.1001C77.3284 19.8715 76.9855 19.7572 76.5755 19.7572C76.1553 19.7572 75.8058 19.8715 75.5268 20.1001C75.2512 20.3286 75.0445 20.6361 74.9067 21.0227C74.7723 21.4058 74.705 21.8344 74.705 22.3083C74.705 22.7788 74.7723 23.2057 74.9067 23.5888C75.0445 23.972 75.2512 24.2779 75.5268 24.5064C75.8058 24.7316 76.1553 24.8442 76.5755 24.8442ZM83.6501 21.6176V26.155H81.8251V18.4111H83.5695V19.727H83.6602C83.8383 19.2934 84.1223 18.9489 84.5122 18.6934C84.9055 18.438 85.3912 18.3103 85.9693 18.3103C86.5037 18.3103 86.9692 18.4246 87.3658 18.6531C87.7658 18.8817 88.075 19.2127 88.2934 19.6463C88.5153 20.0799 88.6245 20.6059 88.6211 21.2243V26.155H86.7961V21.5067C86.7961 20.9891 86.6616 20.584 86.3928 20.2916C86.1272 19.9992 85.7592 19.853 85.2886 19.853C84.9693 19.853 84.6853 19.9236 84.4366 20.0648C84.1913 20.2026 83.998 20.4025 83.8568 20.6647C83.719 20.9269 83.6501 21.2445 83.6501 21.6176ZM93.8543 26.3063C93.0981 26.3063 92.4427 26.1399 91.8881 25.8072C91.3335 25.4744 90.9033 25.0089 90.5975 24.4106C90.295 23.8124 90.1437 23.1133 90.1437 22.3133C90.1437 21.5134 90.295 20.8126 90.5975 20.211C90.9033 19.6093 91.3335 19.1421 91.8881 18.8094C92.4427 18.4767 93.0981 18.3103 93.8543 18.3103C94.6106 18.3103 95.266 18.4767 95.8206 18.8094C96.3752 19.1421 96.8037 19.6093 97.1062 20.211C97.412 20.8126 97.565 21.5134 97.565 22.3133C97.565 23.1133 97.412 23.8124 97.1062 24.4106C96.8037 25.0089 96.3752 25.4744 95.8206 25.8072C95.266 26.1399 94.6106 26.3063 93.8543 26.3063ZM93.8644 24.8442C94.2745 24.8442 94.6173 24.7316 94.8929 24.5064C95.1685 24.2779 95.3736 23.972 95.508 23.5888C95.6458 23.2057 95.7147 22.7788 95.7147 22.3083C95.7147 21.8344 95.6458 21.4058 95.508 21.0227C95.3736 20.6361 95.1685 20.3286 94.8929 20.1001C94.6173 19.8715 94.2745 19.7572 93.8644 19.7572C93.4443 19.7572 93.0947 19.8715 92.8158 20.1001C92.5402 20.3286 92.3335 20.6361 92.1957 21.0227C92.0612 21.4058 91.994 21.8344 91.994 22.3083C91.994 22.7788 92.0612 23.2057 92.1957 23.5888C92.3335 23.972 92.5402 24.2779 92.8158 24.5064C93.0947 24.7316 93.4443 24.8442 93.8644 24.8442ZM102.716 26.155V15.8298H104.541V19.6917H104.617C104.711 19.5035 104.844 19.3035 105.015 19.0917C105.187 18.8766 105.419 18.6934 105.711 18.5422C106.003 18.3876 106.376 18.3103 106.83 18.3103C107.428 18.3103 107.968 18.4632 108.449 18.7691C108.933 19.0716 109.316 19.5203 109.598 20.1152C109.884 20.7067 110.027 21.4327 110.027 22.2932C110.027 23.1435 109.887 23.8661 109.608 24.461C109.329 25.056 108.949 25.5097 108.469 25.8223C107.988 26.1349 107.444 26.2912 106.835 26.2912C106.392 26.2912 106.024 26.2172 105.731 26.0693C105.439 25.9214 105.203 25.7433 105.025 25.5349C104.851 25.3232 104.714 25.1232 104.617 24.935H104.511V26.155H102.716ZM104.506 22.2831C104.506 22.7839 104.577 23.2225 104.718 23.5989C104.862 23.9754 105.069 24.2695 105.338 24.4812C105.61 24.6896 105.94 24.7938 106.326 24.7938C106.729 24.7938 107.067 24.6862 107.339 24.4711C107.612 24.2527 107.817 23.9552 107.954 23.5788C108.096 23.199 108.166 22.7671 108.166 22.2831C108.166 21.8024 108.097 21.3756 107.96 21.0025C107.822 20.6294 107.617 20.337 107.344 20.1253C107.072 19.9135 106.733 19.8076 106.326 19.8076C105.936 19.8076 105.605 19.9102 105.333 20.1152C105.061 20.3202 104.854 20.6076 104.713 20.9773C104.575 21.347 104.506 21.7823 104.506 22.2831ZM115.006 26.3063C114.23 26.3063 113.559 26.1449 112.995 25.8223C112.434 25.4963 112.002 25.0358 111.699 24.4409C111.397 23.8426 111.245 23.1385 111.245 22.3284C111.245 21.5319 111.397 20.8328 111.699 20.2311C112.005 19.6261 112.432 19.1556 112.98 18.8195C113.528 18.48 114.171 18.3103 114.911 18.3103C115.388 18.3103 115.838 18.3876 116.262 18.5422C116.689 18.6934 117.065 18.9287 117.391 19.248C117.721 19.5673 117.979 19.974 118.168 20.4681C118.356 20.9588 118.45 21.5436 118.45 22.2226V22.7822H112.102V21.552H116.7C116.697 21.2025 116.621 20.8916 116.474 20.6193C116.326 20.3437 116.119 20.1269 115.853 19.969C115.591 19.811 115.285 19.732 114.936 19.732C114.563 19.732 114.235 19.8228 113.953 20.0043C113.67 20.1824 113.45 20.4177 113.292 20.7101C113.138 20.9991 113.059 21.3168 113.055 21.663V22.7368C113.055 23.1872 113.138 23.5737 113.302 23.8964C113.467 24.2157 113.697 24.461 113.993 24.6325C114.289 24.8005 114.635 24.8845 115.032 24.8845C115.297 24.8845 115.537 24.8476 115.753 24.7736C115.968 24.6963 116.154 24.5837 116.312 24.4358C116.47 24.288 116.589 24.1048 116.67 23.8863L118.374 24.0779C118.267 24.5283 118.062 24.9215 117.759 25.2576C117.46 25.5904 117.077 25.8492 116.61 26.034C116.142 26.2155 115.608 26.3063 115.006 26.3063ZM121.819 15.8298V26.155H119.994V15.8298H121.819ZM125.521 15.8298V26.155H123.696V15.8298H125.521ZM127.397 26.155V18.4111H129.223V26.155H127.397ZM128.315 17.312C128.026 17.312 127.777 17.2162 127.569 17.0247C127.36 16.8297 127.256 16.5961 127.256 16.3239C127.256 16.0483 127.36 15.8147 127.569 15.6231C127.777 15.4282 128.026 15.3307 128.315 15.3307C128.607 15.3307 128.856 15.4282 129.061 15.6231C129.27 15.8147 129.374 16.0483 129.374 16.3239C129.374 16.5961 129.27 16.8297 129.061 17.0247C128.856 17.2162 128.607 17.312 128.315 17.312ZM133.242 24.7434L133.176 25.298C133.129 25.7215 133.045 26.1517 132.924 26.5886C132.807 27.0289 132.682 27.4339 132.551 27.8036C132.42 28.1734 132.314 28.4641 132.234 28.6758H131.003C131.051 28.4708 131.114 28.1918 131.195 27.8389C131.279 27.486 131.36 27.0894 131.437 26.6491C131.514 26.2088 131.566 25.7618 131.593 25.308L131.629 24.7434H133.242ZM138.489 26.155V18.4111H140.233V19.727H140.324C140.485 19.2833 140.753 18.9371 141.126 18.6884C141.499 18.4363 141.944 18.3103 142.462 18.3103C142.986 18.3103 143.428 18.438 143.788 18.6934C144.151 18.9455 144.406 19.29 144.554 19.727H144.635C144.806 19.2968 145.095 18.9539 145.502 18.6985C145.912 18.4397 146.398 18.3103 146.959 18.3103C147.671 18.3103 148.253 18.5355 148.703 18.9859C149.154 19.4362 149.379 20.0933 149.379 20.9571V26.155H147.549V21.2395C147.549 20.7588 147.421 20.4076 147.166 20.1858C146.91 19.9606 146.598 19.848 146.228 19.848C145.788 19.848 145.443 19.9858 145.194 20.2614C144.949 20.5336 144.826 20.8882 144.826 21.3252V26.155H143.037V21.1638C143.037 20.7639 142.916 20.4446 142.674 20.2059C142.435 19.9673 142.122 19.848 141.736 19.848C141.474 19.848 141.235 19.9152 141.02 20.0496C140.805 20.1807 140.633 20.3673 140.506 20.6093C140.378 20.8479 140.314 21.1269 140.314 21.4462V26.155H138.489ZM153.459 26.3113C152.968 26.3113 152.526 26.2239 152.133 26.0492C151.743 25.871 151.434 25.6089 151.205 25.2627C150.98 24.9165 150.867 24.4896 150.867 23.9821C150.867 23.5452 150.948 23.1838 151.109 22.8981C151.271 22.6125 151.491 22.3839 151.77 22.2125C152.049 22.0411 152.363 21.9117 152.713 21.8243C153.066 21.7335 153.43 21.668 153.807 21.6277C154.26 21.5806 154.628 21.5386 154.911 21.5016C155.193 21.4613 155.398 21.4008 155.526 21.3201C155.657 21.2361 155.722 21.1067 155.722 20.9319V20.9017C155.722 20.5219 155.61 20.2278 155.385 20.0194C155.16 19.811 154.835 19.7068 154.412 19.7068C153.965 19.7068 153.61 19.8043 153.348 19.9992C153.089 20.1942 152.914 20.4244 152.824 20.6899L151.12 20.4479C151.254 19.9774 151.476 19.5841 151.785 19.2682C152.094 18.9489 152.472 18.7102 152.919 18.5523C153.366 18.3909 153.86 18.3103 154.402 18.3103C154.775 18.3103 155.146 18.354 155.516 18.4414C155.886 18.5287 156.223 18.6733 156.529 18.8749C156.835 19.0732 157.08 19.3438 157.265 19.6866C157.453 20.0295 157.548 20.458 157.548 20.9723V26.155H155.793V25.0912H155.733C155.622 25.3064 155.465 25.508 155.264 25.6962C155.065 25.8811 154.815 26.0307 154.513 26.1449C154.213 26.2559 153.862 26.3113 153.459 26.3113ZM153.933 24.9703C154.299 24.9703 154.617 24.898 154.886 24.7535C155.154 24.6056 155.361 24.4106 155.506 24.1686C155.654 23.9266 155.728 23.6628 155.728 23.3771V22.4646C155.67 22.5116 155.573 22.5553 155.435 22.5957C155.301 22.636 155.149 22.6713 154.981 22.7015C154.813 22.7318 154.647 22.7587 154.482 22.7822C154.318 22.8057 154.175 22.8259 154.054 22.8427C153.781 22.8797 153.538 22.9402 153.323 23.0242C153.108 23.1082 152.938 23.2259 152.813 23.3771C152.689 23.525 152.627 23.7166 152.627 23.9518C152.627 24.288 152.75 24.5417 152.995 24.7131C153.24 24.8845 153.553 24.9703 153.933 24.9703ZM165.778 26.2912C165.17 26.2912 164.625 26.1349 164.145 25.8223C163.664 25.5097 163.284 25.056 163.005 24.461C162.726 23.8661 162.587 23.1435 162.587 22.2932C162.587 21.4327 162.728 20.7067 163.01 20.1152C163.296 19.5203 163.681 19.0716 164.165 18.7691C164.649 18.4632 165.188 18.3103 165.783 18.3103C166.237 18.3103 166.61 18.3876 166.902 18.5422C167.195 18.6934 167.427 18.8766 167.598 19.0917C167.769 19.3035 167.902 19.5035 167.996 19.6917H168.072V15.8298H169.902V26.155H168.107V24.935H167.996C167.902 25.1232 167.766 25.3232 167.588 25.5349C167.41 25.7433 167.175 25.9214 166.882 26.0693C166.59 26.2172 166.222 26.2912 165.778 26.2912ZM166.287 24.7938C166.674 24.7938 167.003 24.6896 167.275 24.4812C167.548 24.2695 167.754 23.9754 167.895 23.5989C168.037 23.2225 168.107 22.7839 168.107 22.2831C168.107 21.7823 168.037 21.347 167.895 20.9773C167.758 20.6076 167.553 20.3202 167.28 20.1152C167.012 19.9102 166.68 19.8076 166.287 19.8076C165.881 19.8076 165.541 19.9135 165.269 20.1253C164.997 20.337 164.792 20.6294 164.654 21.0025C164.516 21.3756 164.447 21.8024 164.447 22.2831C164.447 22.7671 164.516 23.199 164.654 23.5788C164.795 23.9552 165.002 24.2527 165.274 24.4711C165.549 24.6862 165.887 24.7938 166.287 24.7938ZM175.225 26.3063C174.468 26.3063 173.813 26.1399 173.258 25.8072C172.704 25.4744 172.274 25.0089 171.968 24.4106C171.665 23.8124 171.514 23.1133 171.514 22.3133C171.514 21.5134 171.665 20.8126 171.968 20.211C172.274 19.6093 172.704 19.1421 173.258 18.8094C173.813 18.4767 174.468 18.3103 175.225 18.3103C175.981 18.3103 176.636 18.4767 177.191 18.8094C177.746 19.1421 178.174 19.6093 178.477 20.211C178.782 20.8126 178.935 21.5134 178.935 22.3133C178.935 23.1133 178.782 23.8124 178.477 24.4106C178.174 25.0089 177.746 25.4744 177.191 25.8072C176.636 26.1399 175.981 26.3063 175.225 26.3063ZM175.235 24.8442C175.645 24.8442 175.988 24.7316 176.263 24.5064C176.539 24.2779 176.744 23.972 176.878 23.5888C177.016 23.2057 177.085 22.7788 177.085 22.3083C177.085 21.8344 177.016 21.4058 176.878 21.0227C176.744 20.6361 176.539 20.3286 176.263 20.1001C175.988 19.8715 175.645 19.7572 175.235 19.7572C174.815 19.7572 174.465 19.8715 174.186 20.1001C173.911 20.3286 173.704 20.6361 173.566 21.0227C173.432 21.4058 173.364 21.8344 173.364 22.3083C173.364 22.7788 173.432 23.2057 173.566 23.5888C173.704 23.972 173.911 24.2779 174.186 24.5064C174.465 24.7316 174.815 24.8442 175.235 24.8442ZM187.138 18.4111L184.38 26.155H182.364L179.606 18.4111H181.552L183.332 24.1636H183.412L185.197 18.4111H187.138ZM191.566 26.3063C190.789 26.3063 190.119 26.1449 189.554 25.8223C188.993 25.4963 188.561 25.0358 188.259 24.4409C187.956 23.8426 187.805 23.1385 187.805 22.3284C187.805 21.5319 187.956 20.8328 188.259 20.2311C188.564 19.6261 188.991 19.1556 189.539 18.8195C190.087 18.48 190.731 18.3103 191.47 18.3103C191.947 18.3103 192.398 18.3876 192.821 18.5422C193.248 18.6934 193.625 18.9287 193.951 19.248C194.28 19.5673 194.539 19.974 194.727 20.4681C194.915 20.9588 195.009 21.5436 195.009 22.2226V22.7822H188.662V21.552H193.26C193.256 21.2025 193.181 20.8916 193.033 20.6193C192.885 20.3437 192.678 20.1269 192.413 19.969C192.151 19.811 191.845 19.732 191.495 19.732C191.122 19.732 190.794 19.8228 190.512 20.0043C190.23 20.1824 190.01 20.4177 189.852 20.7101C189.697 20.9991 189.618 21.3168 189.615 21.663V22.7368C189.615 23.1872 189.697 23.5737 189.862 23.8964C190.026 24.2157 190.257 24.461 190.552 24.6325C190.848 24.8005 191.194 24.8845 191.591 24.8845C191.857 24.8845 192.097 24.8476 192.312 24.7736C192.527 24.6963 192.714 24.5837 192.872 24.4358C193.03 24.288 193.149 24.1048 193.23 23.8863L194.934 24.0779C194.826 24.5283 194.621 24.9215 194.319 25.2576C194.019 25.5904 193.636 25.8492 193.169 26.034C192.702 26.2155 192.167 26.3063 191.566 26.3063ZM206.195 20.458L204.532 20.6395C204.485 20.4715 204.402 20.3135 204.285 20.1656C204.17 20.0177 204.016 19.8984 203.821 19.8076C203.626 19.7169 203.387 19.6715 203.105 19.6715C202.725 19.6715 202.406 19.7539 202.147 19.9186C201.891 20.0832 201.765 20.2967 201.769 20.5588C201.765 20.784 201.848 20.9672 202.016 21.1084C202.187 21.2495 202.47 21.3655 202.863 21.4562L204.184 21.7386C204.916 21.8965 205.461 22.1469 205.817 22.4898C206.177 22.8326 206.358 23.2813 206.362 23.8359C206.358 24.3232 206.216 24.7535 205.933 25.1265C205.654 25.4963 205.266 25.7853 204.769 25.9937C204.271 26.2021 203.7 26.3063 203.054 26.3063C202.107 26.3063 201.344 26.108 200.766 25.7114C200.187 25.3114 199.843 24.7551 199.732 24.0426L201.512 23.8712C201.592 24.2207 201.764 24.4846 202.026 24.6627C202.288 24.8408 202.629 24.9299 203.049 24.9299C203.483 24.9299 203.831 24.8408 204.093 24.6627C204.359 24.4846 204.491 24.2644 204.491 24.0023C204.491 23.7804 204.406 23.5973 204.234 23.4527C204.066 23.3082 203.804 23.1973 203.448 23.12L202.127 22.8427C201.384 22.6881 200.834 22.4276 200.478 22.0612C200.122 21.6915 199.945 21.2243 199.949 20.6597C199.945 20.1824 200.075 19.769 200.337 19.4194C200.603 19.0665 200.971 18.7943 201.441 18.6027C201.915 18.4078 202.461 18.3103 203.08 18.3103C203.987 18.3103 204.701 18.5035 205.222 18.8901C205.747 19.2766 206.071 19.7992 206.195 20.458ZM211.245 26.3063C210.488 26.3063 209.833 26.1399 209.278 25.8072C208.724 25.4744 208.294 25.0089 207.988 24.4106C207.685 23.8124 207.534 23.1133 207.534 22.3133C207.534 21.5134 207.685 20.8126 207.988 20.211C208.294 19.6093 208.724 19.1421 209.278 18.8094C209.833 18.4767 210.488 18.3103 211.245 18.3103C212.001 18.3103 212.656 18.4767 213.211 18.8094C213.765 19.1421 214.194 19.6093 214.496 20.211C214.802 20.8126 214.955 21.5134 214.955 22.3133C214.955 23.1133 214.802 23.8124 214.496 24.4106C214.194 25.0089 213.765 25.4744 213.211 25.8072C212.656 26.1399 212.001 26.3063 211.245 26.3063ZM211.255 24.8442C211.665 24.8442 212.007 24.7316 212.283 24.5064C212.559 24.2779 212.764 23.972 212.898 23.5888C213.036 23.2057 213.105 22.7788 213.105 22.3083C213.105 21.8344 213.036 21.4058 212.898 21.0227C212.764 20.6361 212.559 20.3286 212.283 20.1001C212.007 19.8715 211.665 19.7572 211.255 19.7572C210.834 19.7572 210.485 19.8715 210.206 20.1001C209.93 20.3286 209.724 20.6361 209.586 21.0227C209.451 21.4058 209.384 21.8344 209.384 22.3083C209.384 22.7788 209.451 23.2057 209.586 23.5888C209.724 23.972 209.93 24.2779 210.206 24.5064C210.485 24.7316 210.834 24.8442 211.255 24.8442ZM218.329 21.6176V26.155H216.504V18.4111H218.249V19.727H218.339C218.517 19.2934 218.801 18.9489 219.191 18.6934C219.585 18.438 220.07 18.3103 220.648 18.3103C221.183 18.3103 221.648 18.4246 222.045 18.6531C222.445 18.8817 222.754 19.2127 222.973 19.6463C223.194 20.0799 223.304 20.6059 223.3 21.2243V26.155H221.475V21.5067C221.475 20.9891 221.341 20.584 221.072 20.2916C220.806 19.9992 220.438 19.853 219.968 19.853C219.648 19.853 219.364 19.9236 219.116 20.0648C218.87 20.2026 218.677 20.4025 218.536 20.6647C218.398 20.9269 218.329 21.2445 218.329 21.6176ZM228.533 26.3063C227.777 26.3063 227.122 26.1399 226.567 25.8072C226.013 25.4744 225.582 25.0089 225.277 24.4106C224.974 23.8124 224.823 23.1133 224.823 22.3133C224.823 21.5134 224.974 20.8126 225.277 20.211C225.582 19.6093 226.013 19.1421 226.567 18.8094C227.122 18.4767 227.777 18.3103 228.533 18.3103C229.29 18.3103 229.945 18.4767 230.5 18.8094C231.054 19.1421 231.483 19.6093 231.785 20.211C232.091 20.8126 232.244 21.5134 232.244 22.3133C232.244 23.1133 232.091 23.8124 231.785 24.4106C231.483 25.0089 231.054 25.4744 230.5 25.8072C229.945 26.1399 229.29 26.3063 228.533 26.3063ZM228.544 24.8442C228.954 24.8442 229.296 24.7316 229.572 24.5064C229.848 24.2779 230.053 23.972 230.187 23.5888C230.325 23.2057 230.394 22.7788 230.394 22.3083C230.394 21.8344 230.325 21.4058 230.187 21.0227C230.053 20.6361 229.848 20.3286 229.572 20.1001C229.296 19.8715 228.954 19.7572 228.544 19.7572C228.123 19.7572 227.774 19.8715 227.495 20.1001C227.219 20.3286 227.013 20.6361 226.875 21.0227C226.74 21.4058 226.673 21.8344 226.673 22.3083C226.673 22.7788 226.74 23.2057 226.875 23.5888C227.013 23.972 227.219 24.2779 227.495 24.5064C227.774 24.7316 228.123 24.8442 228.544 24.8442ZM15.3174 47.155V39.4111H17.1424V47.155H15.3174ZM16.2349 38.312C15.9459 38.312 15.6972 38.2162 15.4888 38.0247C15.2804 37.8297 15.1762 37.5961 15.1762 37.3239C15.1762 37.0483 15.2804 36.8147 15.4888 36.6231C15.6972 36.4282 15.9459 36.3307 16.2349 36.3307C16.5273 36.3307 16.7761 36.4282 16.9811 36.6231C17.1895 36.8147 17.2937 37.0483 17.2937 37.3239C17.2937 37.5961 17.1895 37.8297 16.9811 38.0247C16.7761 38.2162 16.5273 38.312 16.2349 38.312ZM22.6214 47.155V36.8298H24.4465V40.6917H24.5221C24.6162 40.5035 24.749 40.3035 24.9204 40.0917C25.0918 39.8766 25.3237 39.6934 25.6161 39.5422C25.9085 39.3876 26.2816 39.3103 26.7353 39.3103C27.3336 39.3103 27.8731 39.4632 28.3537 39.7691C28.8377 40.0716 29.2209 40.5203 29.5032 41.1152C29.7889 41.7067 29.9317 42.4327 29.9317 43.2932C29.9317 44.1435 29.7922 44.8661 29.5133 45.461C29.2343 46.056 28.8545 46.5097 28.3739 46.8223C27.8932 47.1349 27.3487 47.2912 26.7404 47.2912C26.2967 47.2912 25.9287 47.2172 25.6363 47.0693C25.3439 46.9214 25.1086 46.7433 24.9305 46.5349C24.7557 46.3232 24.6196 46.1232 24.5221 45.935H24.4162V47.155H22.6214ZM24.4112 43.2831C24.4112 43.7839 24.4817 44.2225 24.6229 44.5989C24.7674 44.9754 24.9741 45.2695 25.243 45.4812C25.5153 45.6896 25.8447 45.7938 26.2312 45.7938C26.6345 45.7938 26.9723 45.6862 27.2446 45.4711C27.5168 45.2527 27.7218 44.9552 27.8596 44.5788C28.0008 44.199 28.0714 43.7671 28.0714 43.2831C28.0714 42.8024 28.0025 42.3756 27.8647 42.0025C27.7269 41.6294 27.5218 41.337 27.2496 41.1253C26.9773 40.9135 26.6379 40.8076 26.2312 40.8076C25.8413 40.8076 25.5102 40.9102 25.238 41.1152C24.9657 41.3202 24.759 41.6076 24.6179 41.9773C24.4801 42.347 24.4112 42.7823 24.4112 43.2831ZM31.4833 47.155V39.4111H33.3084V47.155H31.4833ZM32.4009 38.312C32.1118 38.312 31.8631 38.2162 31.6547 38.0247C31.4463 37.8297 31.3421 37.5961 31.3421 37.3239C31.3421 37.0483 31.4463 36.8147 31.6547 36.6231C31.8631 36.4282 32.1118 36.3307 32.4009 36.3307C32.6933 36.3307 32.942 36.4282 33.147 36.6231C33.3554 36.8147 33.4596 37.0483 33.4596 37.3239C33.4596 37.5961 33.3554 37.8297 33.147 38.0247C32.942 38.2162 32.6933 38.312 32.4009 38.312ZM41.3056 41.458L39.6419 41.6395C39.5948 41.4715 39.5125 41.3135 39.3948 41.1656C39.2806 41.0177 39.126 40.8984 38.931 40.8076C38.7361 40.7169 38.4974 40.6715 38.2151 40.6715C37.8353 40.6715 37.516 40.7539 37.2572 40.9186C37.0018 41.0832 36.8757 41.2967 36.8791 41.5588C36.8757 41.784 36.9581 41.9672 37.1261 42.1084C37.2975 42.2495 37.5799 42.3655 37.9731 42.4562L39.294 42.7386C40.0267 42.8965 40.5712 43.1469 40.9275 43.4898C41.2871 43.8326 41.4686 44.2813 41.472 44.8359C41.4686 45.3232 41.3258 45.7535 41.0434 46.1265C40.7645 46.4963 40.3763 46.7853 39.8788 46.9937C39.3814 47.2021 38.81 47.3063 38.1647 47.3063C37.2169 47.3063 36.4539 47.108 35.8758 46.7114C35.2977 46.3114 34.9532 45.7551 34.8423 45.0426L36.622 44.8712C36.7026 45.2207 36.874 45.4846 37.1362 45.6627C37.3984 45.8408 37.7395 45.9299 38.1596 45.9299C38.5932 45.9299 38.9411 45.8408 39.2033 45.6627C39.4688 45.4846 39.6015 45.2644 39.6015 45.0023C39.6015 44.7804 39.5158 44.5973 39.3444 44.4527C39.1764 44.3082 38.9142 44.1973 38.5579 44.12L37.237 43.8427C36.4942 43.6881 35.9447 43.4276 35.5884 43.0612C35.2321 42.6915 35.0557 42.2243 35.0591 41.6597C35.0557 41.1824 35.1851 40.769 35.4473 40.4194C35.7128 40.0665 36.0808 39.7943 36.5514 39.6027C37.0253 39.4078 37.5715 39.3103 38.1899 39.3103C39.0974 39.3103 39.8116 39.5035 40.3326 39.8901C40.8569 40.2766 41.1813 40.7992 41.3056 41.458ZM46.3548 47.3063C45.5817 47.3063 44.9179 47.1365 44.3633 46.7971C43.8121 46.4576 43.387 45.9887 43.0878 45.3905C42.792 44.7888 42.6442 44.0965 42.6442 43.3133C42.6442 42.5268 42.7954 41.8328 43.0979 41.2311C43.4004 40.6261 43.8273 40.1556 44.3785 39.8195C44.9331 39.48 45.5885 39.3103 46.3447 39.3103C46.9732 39.3103 47.5295 39.4262 48.0135 39.6582C48.5008 39.8867 48.889 40.211 49.1781 40.6312C49.4671 41.048 49.6318 41.5353 49.6722 42.0932H47.9278C47.8572 41.7202 47.6891 41.4093 47.4236 41.1606C47.1614 40.9085 46.8102 40.7824 46.3699 40.7824C45.9968 40.7824 45.6691 40.8833 45.3868 41.0849C45.1045 41.2832 44.8843 41.5689 44.7263 41.942C44.5717 42.3151 44.4944 42.7621 44.4944 43.2831C44.4944 43.8108 44.5717 44.2645 44.7263 44.6443C44.881 45.0207 45.0977 45.3115 45.3767 45.5165C45.659 45.7182 45.9901 45.819 46.3699 45.819C46.6388 45.819 46.8791 45.7686 47.0909 45.6678C47.306 45.5636 47.4858 45.414 47.6303 45.219C47.7748 45.0241 47.874 44.7872 47.9278 44.5082H49.6722C49.6285 45.056 49.4671 45.5417 49.1882 45.9652C48.9092 46.3853 48.5294 46.7147 48.0488 46.9534C47.5681 47.1886 47.0035 47.3063 46.3548 47.3063ZM54.5487 47.3063C53.7924 47.3063 53.137 47.1399 52.5824 46.8072C52.0279 46.4744 51.5976 46.0089 51.2918 45.4106C50.9893 44.8124 50.838 44.1133 50.838 43.3133C50.838 42.5134 50.9893 41.8126 51.2918 41.211C51.5976 40.6093 52.0279 40.1421 52.5824 39.8094C53.137 39.4767 53.7924 39.3103 54.5487 39.3103C55.3049 39.3103 55.9603 39.4767 56.5149 39.8094C57.0695 40.1421 57.498 40.6093 57.8005 41.211C58.1064 41.8126 58.2593 42.5134 58.2593 43.3133C58.2593 44.1133 58.1064 44.8124 57.8005 45.4106C57.498 46.0089 57.0695 46.4744 56.5149 46.8072C55.9603 47.1399 55.3049 47.3063 54.5487 47.3063ZM54.5588 45.8442C54.9688 45.8442 55.3116 45.7316 55.5872 45.5064C55.8628 45.2779 56.0679 44.972 56.2023 44.5888C56.3401 44.2057 56.409 43.7788 56.409 43.3083C56.409 42.8344 56.3401 42.4058 56.2023 42.0227C56.0679 41.6361 55.8628 41.3286 55.5872 41.1001C55.3116 40.8715 54.9688 40.7572 54.5588 40.7572C54.1386 40.7572 53.7891 40.8715 53.5101 41.1001C53.2345 41.3286 53.0278 41.6361 52.89 42.0227C52.7555 42.4058 52.6883 42.8344 52.6883 43.3083C52.6883 43.7788 52.7555 44.2057 52.89 44.5888C53.0278 44.972 53.2345 45.2779 53.5101 45.5064C53.7891 45.7316 54.1386 45.8442 54.5588 45.8442ZM63.6752 39.4111V40.8228H59.2235V39.4111H63.6752ZM60.3226 37.5558H62.1476V44.8258C62.1476 45.0712 62.1846 45.2594 62.2586 45.3905C62.3359 45.5182 62.4367 45.6056 62.5611 45.6526C62.6854 45.6997 62.8232 45.7232 62.9745 45.7232C63.0887 45.7232 63.1929 45.7148 63.287 45.698C63.3845 45.6812 63.4585 45.6661 63.5089 45.6526L63.8164 47.0794C63.7189 47.113 63.5795 47.15 63.398 47.1903C63.2198 47.2307 63.0014 47.2542 62.7425 47.2609C62.2854 47.2743 61.8737 47.2054 61.5074 47.0542C61.141 46.8996 60.8503 46.661 60.6352 46.3383C60.4234 46.0156 60.3192 45.6123 60.3226 45.1283V37.5558ZM69.0685 39.4111V40.8228H64.6168V39.4111H69.0685ZM65.7158 37.5558H67.5409V44.8258C67.5409 45.0712 67.5779 45.2594 67.6518 45.3905C67.7291 45.5182 67.83 45.6056 67.9543 45.6526C68.0787 45.6997 68.2165 45.7232 68.3677 45.7232C68.482 45.7232 68.5862 45.7148 68.6803 45.698C68.7778 45.6812 68.8517 45.6661 68.9021 45.6526L69.2097 47.0794C69.1122 47.113 68.9727 47.15 68.7912 47.1903C68.6131 47.2307 68.3946 47.2542 68.1358 47.2609C67.6787 47.2743 67.267 47.2054 66.9006 47.0542C66.5343 46.8996 66.2435 46.661 66.0284 46.3383C65.8167 46.0156 65.7125 45.6123 65.7158 45.1283V37.5558ZM70.5949 47.155V39.4111H72.4199V47.155H70.5949ZM71.5124 38.312C71.2234 38.312 70.9747 38.2162 70.7663 38.0247C70.5579 37.8297 70.4537 37.5961 70.4537 37.3239C70.4537 37.0483 70.5579 36.8147 70.7663 36.6231C70.9747 36.4282 71.2234 36.3307 71.5124 36.3307C71.8049 36.3307 72.0536 36.4282 72.2586 36.6231C72.467 36.8147 72.5712 37.0483 72.5712 37.3239C72.5712 37.5961 72.467 37.8297 72.2586 38.0247C72.0536 38.2162 71.8049 38.312 71.5124 38.312ZM77.8182 50.059V39.4111H79.613V40.6917H79.7189C79.813 40.5035 79.9458 40.3035 80.1172 40.0917C80.2886 39.8766 80.5205 39.6934 80.813 39.5422C81.1054 39.3876 81.4784 39.3103 81.9322 39.3103C82.5305 39.3103 83.0699 39.4632 83.5505 39.7691C84.0345 40.0716 84.4177 40.5203 84.7 41.1152C84.9857 41.7067 85.1286 42.4327 85.1286 43.2932C85.1286 44.1435 84.9891 44.8661 84.7101 45.461C84.4311 46.056 84.0513 46.5097 83.5707 46.8223C83.0901 47.1349 82.5456 47.2912 81.9372 47.2912C81.4936 47.2912 81.1255 47.2172 80.8331 47.0693C80.5407 46.9214 80.3054 46.7433 80.1273 46.5349C79.9525 46.3232 79.8164 46.1232 79.7189 45.935H79.6433V50.059H77.8182ZM79.608 43.2831C79.608 43.7839 79.6786 44.2225 79.8198 44.5989C79.9643 44.9754 80.171 45.2695 80.4399 45.4812C80.7121 45.6896 81.0415 45.7938 81.428 45.7938C81.8314 45.7938 82.1691 45.6862 82.4414 45.4711C82.7136 45.2527 82.9187 44.9552 83.0565 44.5788C83.1976 44.199 83.2682 43.7671 83.2682 43.2831C83.2682 42.8024 83.1993 42.3756 83.0615 42.0025C82.9237 41.6294 82.7187 41.337 82.4464 41.1253C82.1742 40.9135 81.8347 40.8076 81.428 40.8076C81.0381 40.8076 80.7071 40.9102 80.4348 41.1152C80.1626 41.3202 79.9559 41.6076 79.8147 41.9773C79.6769 42.347 79.608 42.7823 79.608 43.2831ZM90.1198 47.3063C89.3434 47.3063 88.6728 47.1449 88.1082 46.8223C87.5469 46.4963 87.115 46.0358 86.8125 45.4409C86.51 44.8426 86.3587 44.1385 86.3587 43.3284C86.3587 42.5319 86.51 41.8328 86.8125 41.2311C87.1183 40.6261 87.5452 40.1556 88.093 39.8195C88.6409 39.48 89.2845 39.3103 90.024 39.3103C90.5013 39.3103 90.9516 39.3876 91.3751 39.5422C91.802 39.6934 92.1784 39.9287 92.5045 40.248C92.8338 40.5673 93.0926 40.974 93.2809 41.4681C93.4691 41.9588 93.5632 42.5436 93.5632 43.2226V43.7822H87.2158V42.552H91.8137C91.8104 42.2025 91.7348 41.8916 91.5869 41.6193C91.439 41.3437 91.2323 41.1269 90.9668 40.969C90.7046 40.811 90.3987 40.732 90.0492 40.732C89.6761 40.732 89.3484 40.8228 89.0661 41.0043C88.7837 41.1824 88.5636 41.4177 88.4056 41.7101C88.251 41.9991 88.172 42.3168 88.1687 42.663V43.7368C88.1687 44.1872 88.251 44.5737 88.4157 44.8964C88.5804 45.2157 88.8106 45.461 89.1064 45.6325C89.4022 45.8005 89.7484 45.8845 90.145 45.8845C90.4105 45.8845 90.6508 45.8476 90.8659 45.7736C91.081 45.6963 91.2676 45.5837 91.4255 45.4358C91.5835 45.288 91.7028 45.1048 91.7835 44.8863L93.4876 45.0779C93.38 45.5283 93.175 45.9215 92.8725 46.2576C92.5734 46.5904 92.1902 46.8492 91.723 47.034C91.2558 47.2155 90.7214 47.3063 90.1198 47.3063ZM95.1072 47.155V39.4111H96.8768V40.7018H96.9575C97.0986 40.2547 97.3406 39.9102 97.6835 39.6682C98.0296 39.4229 98.4246 39.3002 98.8682 39.3002C98.9691 39.3002 99.0817 39.3052 99.206 39.3153C99.3337 39.322 99.4396 39.3338 99.5236 39.3506V41.0295C99.4463 41.0026 99.3237 40.9791 99.1556 40.9589C98.9909 40.9354 98.8313 40.9236 98.6767 40.9236C98.3439 40.9236 98.0448 40.9959 97.7792 41.1404C97.5171 41.2815 97.3104 41.4782 97.1591 41.7303C97.0079 41.9823 96.9323 42.2731 96.9323 42.6025V47.155H95.1072ZM107.636 47.3063C106.863 47.3063 106.199 47.1365 105.644 46.7971C105.093 46.4576 104.668 45.9887 104.369 45.3905C104.073 44.7888 103.925 44.0965 103.925 43.3133C103.925 42.5268 104.076 41.8328 104.379 41.2311C104.681 40.6261 105.108 40.1556 105.659 39.8195C106.214 39.48 106.869 39.3103 107.626 39.3103C108.254 39.3103 108.81 39.4262 109.294 39.6582C109.782 39.8867 110.17 40.211 110.459 40.6312C110.748 41.048 110.913 41.5353 110.953 42.0932H109.209C109.138 41.7202 108.97 41.4093 108.704 41.1606C108.442 40.9085 108.091 40.7824 107.651 40.7824C107.278 40.7824 106.95 40.8833 106.668 41.0849C106.385 41.2832 106.165 41.5689 106.007 41.942C105.853 42.3151 105.775 42.7621 105.775 43.2831C105.775 43.8108 105.853 44.2645 106.007 44.6443C106.162 45.0207 106.379 45.3115 106.658 45.5165C106.94 45.7182 107.271 45.819 107.651 45.819C107.92 45.819 108.16 45.7686 108.372 45.6678C108.587 45.5636 108.767 45.414 108.911 45.219C109.056 45.0241 109.155 44.7872 109.209 44.5082H110.953C110.909 45.056 110.748 45.5417 110.469 45.9652C110.19 46.3853 109.81 46.7147 109.33 46.9534C108.849 47.1886 108.284 47.3063 107.636 47.3063ZM114.68 47.3113C114.189 47.3113 113.747 47.2239 113.354 47.0492C112.964 46.871 112.655 46.6089 112.426 46.2627C112.201 45.9165 112.089 45.4896 112.089 44.9821C112.089 44.5452 112.169 44.1838 112.331 43.8981C112.492 43.6125 112.712 43.3839 112.991 43.2125C113.27 43.0411 113.584 42.9117 113.934 42.8243C114.287 42.7335 114.651 42.668 115.028 42.6277C115.482 42.5806 115.85 42.5386 116.132 42.5016C116.414 42.4613 116.619 42.4008 116.747 42.3201C116.878 42.2361 116.944 42.1067 116.944 41.9319V41.9017C116.944 41.5219 116.831 41.2278 116.606 41.0194C116.381 40.811 116.056 40.7068 115.633 40.7068C115.186 40.7068 114.831 40.8043 114.569 40.9992C114.31 41.1942 114.135 41.4244 114.045 41.6899L112.341 41.4479C112.475 40.9774 112.697 40.5841 113.006 40.2682C113.315 39.9489 113.694 39.7102 114.141 39.5523C114.588 39.3909 115.082 39.3103 115.623 39.3103C115.996 39.3103 116.367 39.354 116.737 39.4414C117.107 39.5287 117.444 39.6733 117.75 39.8749C118.056 40.0732 118.302 40.3438 118.486 40.6866C118.675 41.0295 118.769 41.458 118.769 41.9723V47.155H117.014V46.0912H116.954C116.843 46.3064 116.687 46.508 116.485 46.6962C116.287 46.8811 116.036 47.0307 115.734 47.1449C115.435 47.2559 115.083 47.3113 114.68 47.3113ZM115.154 45.9703C115.52 45.9703 115.838 45.898 116.107 45.7535C116.376 45.6056 116.582 45.4106 116.727 45.1686C116.875 44.9266 116.949 44.6628 116.949 44.3771V43.4646C116.892 43.5116 116.794 43.5553 116.656 43.5957C116.522 43.636 116.371 43.6713 116.203 43.7015C116.035 43.7318 115.868 43.7587 115.703 43.7822C115.539 43.8057 115.396 43.8259 115.275 43.8427C115.003 43.8797 114.759 43.9402 114.544 44.0242C114.329 44.1082 114.159 44.2259 114.035 44.3771C113.91 44.525 113.848 44.7166 113.848 44.9518C113.848 45.288 113.971 45.5417 114.216 45.7131C114.462 45.8845 114.774 45.9703 115.154 45.9703ZM122.429 42.6176V47.155H120.604V39.4111H122.348V40.727H122.439C122.617 40.2934 122.901 39.9489 123.291 39.6934C123.684 39.438 124.17 39.3103 124.748 39.3103C125.283 39.3103 125.748 39.4246 126.145 39.6531C126.545 39.8817 126.854 40.2127 127.072 40.6463C127.294 41.0799 127.403 41.6059 127.4 42.2243V47.155H125.575V42.5067C125.575 41.9891 125.44 41.584 125.172 41.2916C124.906 40.9992 124.538 40.853 124.067 40.853C123.748 40.853 123.464 40.9236 123.215 41.0648C122.97 41.2026 122.777 41.4025 122.636 41.6647C122.498 41.9269 122.429 42.2445 122.429 42.6176ZM129.255 47.155V39.4111H131.08V47.155H129.255ZM130.173 38.312C129.884 38.312 129.635 38.2162 129.427 38.0247C129.218 37.8297 129.114 37.5961 129.114 37.3239C129.114 37.0483 129.218 36.8147 129.427 36.6231C129.635 36.4282 129.884 36.3307 130.173 36.3307C130.465 36.3307 130.714 36.4282 130.919 36.6231C131.127 36.8147 131.232 37.0483 131.232 37.3239C131.232 37.5961 131.127 37.8297 130.919 38.0247C130.714 38.2162 130.465 38.312 130.173 38.312ZM138.304 42.6176V47.155H136.479V39.4111H138.223V40.727H138.314C138.492 40.2934 138.776 39.9489 139.166 39.6934C139.559 39.438 140.045 39.3103 140.623 39.3103C141.157 39.3103 141.623 39.4246 142.019 39.6531C142.419 39.8817 142.729 40.2127 142.947 40.6463C143.169 41.0799 143.278 41.6059 143.275 42.2243V47.155H141.45V42.5067C141.45 41.9891 141.315 41.584 141.046 41.2916C140.781 40.9992 140.413 40.853 139.942 40.853C139.623 40.853 139.339 40.9236 139.09 41.0648C138.845 41.2026 138.652 41.4025 138.51 41.6647C138.373 41.9269 138.304 42.2445 138.304 42.6176ZM148.558 47.3063C147.782 47.3063 147.111 47.1449 146.547 46.8223C145.985 46.4963 145.554 46.0358 145.251 45.4409C144.949 44.8426 144.797 44.1385 144.797 43.3284C144.797 42.5319 144.949 41.8328 145.251 41.2311C145.557 40.6261 145.984 40.1556 146.532 39.8195C147.079 39.48 147.723 39.3103 148.463 39.3103C148.94 39.3103 149.39 39.3876 149.814 39.5422C150.241 39.6934 150.617 39.9287 150.943 40.248C151.272 40.5673 151.531 40.974 151.719 41.4681C151.908 41.9588 152.002 42.5436 152.002 43.2226V43.7822H145.654V42.552H150.252C150.249 42.2025 150.173 41.8916 150.025 41.6193C149.878 41.3437 149.671 41.1269 149.405 40.969C149.143 40.811 148.837 40.732 148.488 40.732C148.115 40.732 147.787 40.8228 147.505 41.0043C147.222 41.1824 147.002 41.4177 146.844 41.7101C146.69 41.9991 146.611 42.3168 146.607 42.663V43.7368C146.607 44.1872 146.69 44.5737 146.854 44.8964C147.019 45.2157 147.249 45.461 147.545 45.6325C147.841 45.8005 148.187 45.8845 148.584 45.8845C148.849 45.8845 149.089 45.8476 149.305 45.7736C149.52 45.6963 149.706 45.5837 149.864 45.4358C150.022 45.288 150.141 45.1048 150.222 44.8863L151.926 45.0779C151.819 45.5283 151.614 45.9215 151.311 46.2576C151.012 46.5904 150.629 46.8492 150.162 47.034C149.694 47.2155 149.16 47.3063 148.558 47.3063ZM155.371 36.8298V47.155H153.546V36.8298H155.371ZM162.367 47.155L160.179 39.4111H162.04L163.401 44.8561H163.471L164.863 39.4111H166.703L168.095 44.8258H168.17L169.511 39.4111H171.377L169.184 47.155H167.283L165.831 41.9218H165.725L164.273 47.155H162.367ZM172.651 47.155V39.4111H174.476V47.155H172.651ZM173.569 38.312C173.279 38.312 173.031 38.2162 172.822 38.0247C172.614 37.8297 172.51 37.5961 172.51 37.3239C172.51 37.0483 172.614 36.8147 172.822 36.6231C173.031 36.4282 173.279 36.3307 173.569 36.3307C173.861 36.3307 174.11 36.4282 174.315 36.6231C174.523 36.8147 174.627 37.0483 174.627 37.3239C174.627 37.5961 174.523 37.8297 174.315 38.0247C174.11 38.2162 173.861 38.312 173.569 38.312ZM176.353 47.155V39.4111H178.122V40.7018H178.203C178.344 40.2547 178.586 39.9102 178.929 39.6682C179.275 39.4229 179.67 39.3002 180.114 39.3002C180.215 39.3002 180.327 39.3052 180.452 39.3153C180.579 39.322 180.685 39.3338 180.769 39.3506V41.0295C180.692 41.0026 180.569 40.9791 180.401 40.9589C180.237 40.9354 180.077 40.9236 179.922 40.9236C179.589 40.9236 179.29 40.9959 179.025 41.1404C178.763 41.2815 178.556 41.4782 178.405 41.7303C178.253 41.9823 178.178 42.2731 178.178 42.6025V47.155H176.353ZM185.091 47.3063C184.315 47.3063 183.644 47.1449 183.08 46.8223C182.518 46.4963 182.086 46.0358 181.784 45.4409C181.481 44.8426 181.33 44.1385 181.33 43.3284C181.33 42.5319 181.481 41.8328 181.784 41.2311C182.09 40.6261 182.517 40.1556 183.064 39.8195C183.612 39.48 184.256 39.3103 184.995 39.3103C185.473 39.3103 185.923 39.3876 186.347 39.5422C186.773 39.6934 187.15 39.9287 187.476 40.248C187.805 40.5673 188.064 40.974 188.252 41.4681C188.44 41.9588 188.535 42.5436 188.535 43.2226V43.7822H182.187V42.552H186.785C186.782 42.2025 186.706 41.8916 186.558 41.6193C186.41 41.3437 186.204 41.1269 185.938 40.969C185.676 40.811 185.37 40.732 185.021 40.732C184.648 40.732 184.32 40.8228 184.037 41.0043C183.755 41.1824 183.535 41.4177 183.377 41.7101C183.222 41.9991 183.143 42.3168 183.14 42.663V43.7368C183.14 44.1872 183.222 44.5737 183.387 44.8964C183.552 45.2157 183.782 45.461 184.078 45.6325C184.374 45.8005 184.72 45.8845 185.116 45.8845C185.382 45.8845 185.622 45.8476 185.837 45.7736C186.052 45.6963 186.239 45.5837 186.397 45.4358C186.555 45.288 186.674 45.1048 186.755 44.8863L188.459 45.0779C188.351 45.5283 188.146 45.9215 187.844 46.2576C187.545 46.5904 187.162 46.8492 186.694 47.034C186.227 47.2155 185.693 47.3063 185.091 47.3063ZM194.001 39.4111V40.8228H189.423V39.4111H194.001ZM190.568 47.155V38.6801C190.568 38.1591 190.675 37.7255 190.89 37.3793C191.109 37.0332 191.401 36.7743 191.768 36.6029C192.134 36.4315 192.541 36.3458 192.988 36.3458C193.304 36.3458 193.584 36.371 193.83 36.4214C194.075 36.4719 194.256 36.5172 194.374 36.5576L194.011 37.9692C193.934 37.9457 193.836 37.9222 193.719 37.8986C193.601 37.8717 193.47 37.8583 193.325 37.8583C192.986 37.8583 192.746 37.9406 192.604 38.1053C192.467 38.2667 192.398 38.4986 192.398 38.8011V47.155H190.568ZM195.43 47.155V39.4111H197.2V40.7018H197.281C197.422 40.2547 197.664 39.9102 198.006 39.6682C198.353 39.4229 198.748 39.3002 199.191 39.3002C199.292 39.3002 199.405 39.3052 199.529 39.3153C199.657 39.322 199.763 39.3338 199.847 39.3506V41.0295C199.769 41.0026 199.647 40.9791 199.479 40.9589C199.314 40.9354 199.154 40.9236 199 40.9236C198.667 40.9236 198.368 40.9959 198.102 41.1404C197.84 41.2815 197.633 41.4782 197.482 41.7303C197.331 41.9823 197.255 42.2731 197.255 42.6025V47.155H195.43ZM203.149 47.3113C202.658 47.3113 202.216 47.2239 201.823 47.0492C201.433 46.871 201.124 46.6089 200.895 46.2627C200.67 45.9165 200.558 45.4896 200.558 44.9821C200.558 44.5452 200.638 44.1838 200.8 43.8981C200.961 43.6125 201.181 43.3839 201.46 43.2125C201.739 43.0411 202.053 42.9117 202.403 42.8243C202.756 42.7335 203.12 42.668 203.497 42.6277C203.951 42.5806 204.319 42.5386 204.601 42.5016C204.883 42.4613 205.088 42.4008 205.216 42.3201C205.347 42.2361 205.413 42.1067 205.413 41.9319V41.9017C205.413 41.5219 205.3 41.2278 205.075 41.0194C204.85 40.811 204.525 40.7068 204.102 40.7068C203.655 40.7068 203.3 40.8043 203.038 40.9992C202.779 41.1942 202.604 41.4244 202.514 41.6899L200.81 41.4479C200.944 40.9774 201.166 40.5841 201.475 40.2682C201.784 39.9489 202.162 39.7102 202.609 39.5523C203.057 39.3909 203.551 39.3103 204.092 39.3103C204.465 39.3103 204.836 39.354 205.206 39.4414C205.576 39.5287 205.913 39.6733 206.219 39.8749C206.525 40.0732 206.771 40.3438 206.955 40.6866C207.144 41.0295 207.238 41.458 207.238 41.9723V47.155H205.483V46.0912H205.423C205.312 46.3064 205.156 46.508 204.954 46.6962C204.756 46.8811 204.505 47.0307 204.203 47.1449C203.904 47.2559 203.552 47.3113 203.149 47.3113ZM203.623 45.9703C203.989 45.9703 204.307 45.898 204.576 45.7535C204.845 45.6056 205.051 45.4106 205.196 45.1686C205.344 44.9266 205.418 44.6628 205.418 44.3771V43.4646C205.361 43.5116 205.263 43.5553 205.125 43.5957C204.991 43.636 204.84 43.6713 204.672 43.7015C204.503 43.7318 204.337 43.7587 204.172 43.7822C204.008 43.8057 203.865 43.8259 203.744 43.8427C203.472 43.8797 203.228 43.9402 203.013 44.0242C202.798 44.1082 202.628 44.2259 202.504 44.3771C202.379 44.525 202.317 44.7166 202.317 44.9518C202.317 45.288 202.44 45.5417 202.685 45.7131C202.93 45.8845 203.243 45.9703 203.623 45.9703ZM209.073 47.155V39.4111H210.817V40.727H210.908C211.069 40.2833 211.337 39.9371 211.71 39.6884C212.083 39.4363 212.528 39.3103 213.046 39.3103C213.57 39.3103 214.012 39.438 214.372 39.6934C214.735 39.9455 214.99 40.29 215.138 40.727H215.219C215.39 40.2968 215.679 39.9539 216.086 39.6985C216.496 39.4397 216.981 39.3103 217.543 39.3103C218.255 39.3103 218.837 39.5355 219.287 39.9859C219.738 40.4362 219.963 41.0933 219.963 41.9571V47.155H218.133V42.2395C218.133 41.7588 218.005 41.4076 217.749 41.1858C217.494 40.9606 217.181 40.848 216.812 40.848C216.371 40.848 216.027 40.9858 215.778 41.2614C215.533 41.5336 215.41 41.8882 215.41 42.3252V47.155H213.62V42.1638C213.62 41.7639 213.499 41.4446 213.257 41.2059C213.019 40.9673 212.706 40.848 212.32 40.848C212.057 40.848 211.819 40.9152 211.604 41.0496C211.389 41.1807 211.217 41.3673 211.089 41.6093C210.962 41.8479 210.898 42.1269 210.898 42.4462V47.155H209.073ZM225.243 47.3063C224.466 47.3063 223.796 47.1449 223.231 46.8223C222.67 46.4963 222.238 46.0358 221.935 45.4409C221.633 44.8426 221.482 44.1385 221.482 43.3284C221.482 42.5319 221.633 41.8328 221.935 41.2311C222.241 40.6261 222.668 40.1556 223.216 39.8195C223.764 39.48 224.407 39.3103 225.147 39.3103C225.624 39.3103 226.074 39.3876 226.498 39.5422C226.925 39.6934 227.301 39.9287 227.627 40.248C227.957 40.5673 228.215 40.974 228.404 41.4681C228.592 41.9588 228.686 42.5436 228.686 43.2226V43.7822H222.339V42.552H226.937C226.933 42.2025 226.858 41.8916 226.71 41.6193C226.562 41.3437 226.355 41.1269 226.09 40.969C225.827 40.811 225.522 40.732 225.172 40.732C224.799 40.732 224.471 40.8228 224.189 41.0043C223.907 41.1824 223.686 41.4177 223.528 41.7101C223.374 41.9991 223.295 42.3168 223.291 42.663V43.7368C223.291 44.1872 223.374 44.5737 223.538 44.8964C223.703 45.2157 223.933 45.461 224.229 45.6325C224.525 45.8005 224.871 45.8845 225.268 45.8845C225.533 45.8845 225.774 45.8476 225.989 45.7736C226.204 45.6963 226.39 45.5837 226.548 45.4358C226.706 45.288 226.826 45.1048 226.906 44.8863L228.61 45.0779C228.503 45.5283 228.298 45.9215 227.995 46.2576C227.696 46.5904 227.313 46.8492 226.846 47.034C226.379 47.2155 225.844 47.3063 225.243 47.3063ZM231.974 44.12V43.9889C231.978 43.3805 232.035 42.8965 232.146 42.5369C232.26 42.1773 232.421 41.8882 232.63 41.6698C232.838 41.4479 233.092 41.2446 233.391 41.0597C233.596 40.932 233.779 40.7925 233.941 40.6413C234.105 40.4867 234.235 40.3152 234.329 40.127C234.423 39.9354 234.47 39.722 234.47 39.4867C234.47 39.2212 234.408 38.991 234.283 38.796C234.159 38.6011 233.991 38.4498 233.779 38.3423C233.571 38.2347 233.337 38.181 233.078 38.181C232.84 38.181 232.613 38.2331 232.398 38.3372C232.186 38.4381 232.01 38.5927 231.869 38.8011C231.731 39.0061 231.653 39.2666 231.637 39.5825H229.842C229.859 38.9439 230.013 38.4095 230.306 37.9793C230.601 37.5491 230.991 37.2264 231.475 37.0113C231.963 36.7962 232.5 36.6886 233.089 36.6886C233.731 36.6886 234.295 36.8012 234.783 37.0264C235.273 37.2516 235.655 37.5726 235.927 37.9894C236.203 38.4028 236.34 38.8935 236.34 39.4615C236.34 39.8447 236.278 40.1875 236.154 40.49C236.033 40.7925 235.86 41.0614 235.635 41.2967C235.409 41.5319 235.142 41.742 234.833 41.9269C234.561 42.0949 234.337 42.2697 234.162 42.4512C233.991 42.6327 233.863 42.8461 233.779 43.0915C233.699 43.3335 233.657 43.6326 233.653 43.9889V44.12H231.974ZM232.852 47.2659C232.549 47.2659 232.289 47.1584 232.07 46.9433C231.852 46.7282 231.742 46.466 231.742 46.1568C231.742 45.8543 231.852 45.5955 232.07 45.3804C232.289 45.1653 232.549 45.0577 232.852 45.0577C233.151 45.0577 233.41 45.1653 233.628 45.3804C233.85 45.5955 233.961 45.8543 233.961 46.1568C233.961 46.3618 233.909 46.5484 233.804 46.7164C233.704 46.8845 233.569 47.0189 233.401 47.1197C233.236 47.2172 233.053 47.2659 232.852 47.2659Z" fill="#344054"/>
</svg>
